{
  "accessors": [
    {
      "bufferView": 2,
      "componentType": 5126,
      "count": 65532,
      "max": [
        574.3175659179688,
        233.9822998046875,
        574.2843017578125
      ],
      "min": [
        -574.3228759765625,
        -35.7318115234375,
        -574.304443359375
      ],
      "type": "VEC3"
    },
    {
      "bufferView": 2,
      "byteOffset": 786384,
      "componentType": 5126,
      "count": 65532,
      "max": [
        0.9773803949356079,
        0.9999998211860657,
        0.9682074785232544
      ],
      "min": [
        -0.9789053797721863,
        0.12028390169143677,
        -0.9912897944450378
      ],
      "type": "VEC3"
    },
    {
      "bufferView": 3,
      "componentType": 5126,
      "count": 65532,
      "max": [
        0.9999998211860657,
        0.9807198643684387,
        0.9967461824417114,
        1.0
      ],
      "min": [
        -0.571651041507721,
        -0.9807971119880676,
        -0.946199357509613,
        -1.0
      ],
      "type": "VEC4"
    },
    {
      "bufferView": 1,
      "componentType": 5126,
      "count": 65532,
      "max": [
        0.999830961227417,
        0.9994900822639465
      ],
      "min": [
        -2.2351741790771484e-08,
        7.569319859612733e-05
      ],
      "type": "VEC2"
    },
    {
      "bufferView": 0,
      "componentType": 5125,
      "count": 307728,
      "type": "SCALAR"
    },
    {
      "bufferView": 2,
      "byteOffset": 1572768,
      "componentType": 5126,
      "count": 55259,
      "max": [
        574.3175659179688,
        238.700439453125,
        574.3036499023438
      ],
      "min": [
        -574.2813720703125,
        -35.72099685668945,
        -574.304443359375
      ],
      "type": "VEC3"
    },
    {
      "bufferView": 2,
      "byteOffset": 2235876,
      "componentType": 5126,
      "count": 55259,
      "max": [
        0.9954954385757446,
        0.9999892115592957,
        0.9900749921798706
      ],
      "min": [
        -0.9789053797721863,
        -0.9942606687545776,
        -0.9894255995750427
      ],
      "type": "VEC3"
    },
    {
      "bufferView": 3,
      "byteOffset": 1048512,
      "componentType": 5126,
      "count": 55259,
      "max": [
        0.9999998211860657,
        0.997482180595398,
        0.9967461824417114,
        1.0
      ],
      "min": [
        -0.9302037954330444,
        -0.9901686906814575,
        -0.8521775007247925,
        -1.0
      ],
      "type": "VEC4"
    },
    {
      "bufferView": 1,
      "byteOffset": 524256,
      "componentType": 5126,
      "count": 55259,
      "max": [
        0.9996982216835022,
        0.9994900822639465
      ],
      "min": [
        4.014224396087229e-05,
        7.569319859612733e-05
      ],
      "type": "VEC2"
    },
    {
      "bufferView": 0,
      "byteOffset": 1230912,
      "componentType": 5125,
      "count": 172263,
      "type": "SCALAR"
    }
  ],
  "asset": {
    "extras": {
      "author": "gelmi.com.br (https://sketchfab.com/rodrigogelmi)",
      "license": "CC-BY-4.0 (http://creativecommons.org/licenses/by/4.0/)",
      "source": "https://sketchfab.com/3d-models/rocks-630c92c7ad7343a3b04b187f60965856",
      "title": "Rocks"
    },
    "generator": "Sketchfab-12.66.0",
    "version": "2.0"
  },
  "bufferViews": [
    {
      "buffer": 0,
      "byteLength": 1919964,
      "name": "floatBufferViews",
      "target": 34963
    },
    {
      "buffer": 0,
      "byteLength": 966328,
      "byteOffset": 1919964,
      "byteStride": 8,
      "name": "floatBufferViews",
      "target": 34962
    },
    {
      "buffer": 0,
      "byteLength": 2898984,
      "byteOffset": 2886292,
      "byteStride": 12,
      "name": "floatBufferViews",
      "target": 34962
    },
    {
      "buffer": 0,
      "byteLength": 1932656,
      "byteOffset": 5785276,
      "byteStride": 16,
      "name": "floatBufferViews",
      "target": 34962
    }
  ],
  "buffers": [
    {
      "byteLength": 7717932,
      "uri": "scene.bin"
    }
  ],
  "images": [
    {
      "uri": "textures/bake_baseColor.jpeg"
    },
    {
      "uri": "textures/bake_normal.jpeg"
    }
  ],
  "materials": [
    {
      "doubleSided": true,
      "name": "bake",
      "normalTexture": {
        "index": 1
      },
      "pbrMetallicRoughness": {
        "baseColorTexture": {
          "index": 0
        },
        "metallicFactor": 0.0,
        "roughnessFactor": 0.7556515209553168
      }
    }
  ],
  "meshes": [
    {
      "name": "Mesh_bake_0",
      "primitives": [
        {
          "attributes": {
            "NORMAL": 1,
            "POSITION": 0,
            "TANGENT": 2,
            "TEXCOORD_0": 3
          },
          "indices": 4,
          "material": 0,
          "mode": 4
        }
      ]
    },
    {
      "name": "Mesh_bake_0",
      "primitives": [
        {
          "attributes": {
            "NORMAL": 6,
            "POSITION": 5,
            "TANGENT": 7,
            "TEXCOORD_0": 8
          },
          "indices": 9,
          "material": 0,
          "mode": 4
        }
      ]
    }
  ],
  "nodes": [
    {
      "children": [
        1
      ],
      "matrix": [
        1.0,
        0.0,
        0.0,
        0.0,
        0.0,
        2.220446049250313e-16,
        -1.0,
        0.0,
        0.0,
        1.0,
        2.220446049250313e-16,
        0.0,
        0.0,
        0.0,
        0.0,
        1.0
      ],
      "name": "Sketchfab_model"
    },
    {
      "children": [
        2
      ],
      "matrix": [
        0.009999999776482582,
        0.0,
        0.0,
        0.0,
        0.0,
        0.0,
        0.009999999776482582,
        0.0,
        0.0,
        -0.009999999776482582,
        0.0,
        0.0,
        0.0,
        0.0,
        0.0,
        1.0
      ],
      "name": "89ceb8b974c0422d94d63f30fd04ecc4.fbx"
    },
    {
      "children": [
        3,
        6,
        8
      ],
      "name": "RootNode"
    },
    {
      "children": [
        4,
        5
      ],
      "name": "Mesh"
    },
    {
      "mesh": 0,
      "name": "Mesh_bake_0"
    },
    {
      "mesh": 1,
      "name": "Mesh_bake_0"
    },
    {
      "children": [
        7
      ],
      "matrix": [
        -0.32501242386201556,
        -0.509197614651759,
        -0.7969220247729989,
        0.0,
        -0.20861719364109915,
        0.8605153577970648,
        -0.4647495944190825,
        0.0,
        0.9224130261724677,
        0.01520224418789079,
        -0.38590555958550543,
        0.0,
        636.6367797851563,
        780.1550903320313,
        1420.6898193359375,
        1.0
      ],
      "name": "Camera"
    },
    {
      "name": "Object_7"
    },
    {
      "children": [
        9
      ],
      "matrix": [
        0.7071067811865476,
        5.551115123125783e-17,
        0.7071067811865475,
        0.0,
        -0.6123724356957945,
        0.5000000000000001,
        0.6123724356957945,
        0.0,
        -0.35355339059327373,
        -0.8660254037844386,
        0.35355339059327395,
        0.0,
        -200.0,
        200.0,
        200.0,
        1.0
      ],
      "name": "Directional Light"
    },
    {
      "children": [
        10
      ],
      "matrix": [
        1.0,
        0.0,
        0.0,
        0.0,
        0.0,
        2.220446049250313e-16,
        1.0,
        0.0,
        0.0,
        -1.0,
        2.220446049250313e-16,
        0.0,
        0.0,
        0.0,
        0.0,
        1.0
      ],
      "name": "Object_9"
    },
    {
      "name": "Object_10"
    }
  ],
  "samplers": [
    {
      "magFilter": 9729,
      "minFilter": 9987,
      "wrapS": 10497,
      "wrapT": 10497
    }
  ],
  "scene": 0,
  "scenes": [
    {
      "name": "Sketchfab_Scene",
      "nodes": [
        0
      ]
    }
  ],
  "textures": [
    {
      "sampler": 0,
      "source": 0
    },
    {
      "sampler": 0,
      "source": 1
    }
  ]
}
