{
  "accessors": [
    {
      "bufferView": 2,
      "componentType": 5126,
      "count": 29932,
      "max": [
        406.3411865234375,
        660.5823974609375,
        290.9635925292969
      ],
      "min": [
        -406.2304992675781,
        26.47606086730957,
        -290.9635009765625
      ],
      "type": "VEC3"
    },
    {
      "bufferView": 2,
      "byteOffset": 359184,
      "componentType": 5126,
      "count": 29932,
      "max": [
        1.0,
        1.0,
        1.0
      ],
      "min": [
        -1.0,
        -1.0,
        -1.0
      ],
      "type": "VEC3"
    },
    {
      "bufferView": 1,
      "componentType": 5126,
      "count": 29932,
      "max": [
        0.9922881722450256,
        0.9857568144798279
      ],
      "min": [
        0.012382689863443375,
        0.005842254962772131
      ],
      "type": "VEC2"
    },
    {
      "bufferView": 0,
      "componentType": 5125,
      "count": 64488,
      "type": "SCALAR"
    },
    {
      "bufferView": 2,
      "byteOffset": 718368,
      "componentType": 5126,
      "count": 40993,
      "max": [
        349.0273132324219,
        565.538330078125,
        284.7373046875
      ],
      "min": [
        -347.77288818359375,
        25.6907901763916,
        194.82150268554688
      ],
      "type": "VEC3"
    },
    {
      "bufferView": 2,
      "byteOffset": 1210284,
      "componentType": 5126,
      "count": 40993,
      "max": [
        1.0,
        1.0,
        1.0
      ],
      "min": [
        -1.0,
        -1.0,
        -1.0
      ],
      "type": "VEC3"
    },
    {
      "bufferView": 1,
      "byteOffset": 239456,
      "componentType": 5126,
      "count": 40993,
      "max": [
        0.9963963031768799,
        0.9931442141532898
      ],
      "min": [
        0.00922024343162775,
        0.0058599431067705154
      ],
      "type": "VEC2"
    },
    {
      "bufferView": 0,
      "byteOffset": 257952,
      "componentType": 5125,
      "count": 85056,
      "type": "SCALAR"
    },
    {
      "bufferView": 2,
      "byteOffset": 1702200,
      "componentType": 5126,
      "count": 1824,
      "max": [
        340.9938049316406,
        509.95361328125,
        212.55459594726563
      ],
      "min": [
        -342.3026123046875,
        343.0356140136719,
        -129.5142059326172
      ],
      "type": "VEC3"
    },
    {
      "bufferView": 2,
      "byteOffset": 1724088,
      "componentType": 5126,
      "count": 1824,
      "max": [
        1.0,
        1.0,
        1.0
      ],
      "min": [
        -1.0,
        -1.0,
        -1.0
      ],
      "type": "VEC3"
    },
    {
      "bufferView": 1,
      "byteOffset": 567400,
      "componentType": 5126,
      "count": 1824,
      "max": [
        0.995632529258728,
        0.9364748001098633
      ],
      "min": [
        0.0032645459286868572,
        0.0036621089093387127
      ],
      "type": "VEC2"
    },
    {
      "bufferView": 1,
      "byteOffset": 581992,
      "componentType": 5126,
      "count": 1824,
      "max": [
        0.995632529258728,
        0.9364748001098633
      ],
      "min": [
        0.0032645459286868572,
        0.0036621089093387127
      ],
      "type": "VEC2"
    },
    {
      "bufferView": 0,
      "byteOffset": 598176,
      "componentType": 5125,
      "count": 2994,
      "type": "SCALAR"
    },
    {
      "bufferView": 2,
      "byteOffset": 1745976,
      "componentType": 5126,
      "count": 1576,
      "max": [
        382.0474853515625,
        542.4910888671875,
        229.83090209960938
      ],
      "min": [
        -354.40289306640625,
        0.4585705101490021,
        -216.3321990966797
      ],
      "type": "VEC3"
    },
    {
      "bufferView": 2,
      "byteOffset": 1764888,
      "componentType": 5126,
      "count": 1576,
      "max": [
        1.0,
        1.0,
        1.0
      ],
      "min": [
        -1.0,
        -1.0,
        -1.0
      ],
      "type": "VEC3"
    },
    {
      "bufferView": 1,
      "byteOffset": 596584,
      "componentType": 5126,
      "count": 1576,
      "max": [
        0.9981753826141357,
        0.9957926869392395
      ],
      "min": [
        0.005555769894272089,
        0.007281885016709566
      ],
      "type": "VEC2"
    },
    {
      "bufferView": 0,
      "byteOffset": 610152,
      "componentType": 5125,
      "count": 3456,
      "type": "SCALAR"
    },
    {
      "bufferView": 2,
      "byteOffset": 1783800,
      "componentType": 5126,
      "count": 14698,
      "max": [
        355.7403869628906,
        691.460693359375,
        322.4283142089844
      ],
      "min": [
        -355.7403869628906,
        562.1580200195313,
        -322.4283142089844
      ],
      "type": "VEC3"
    },
    {
      "bufferView": 2,
      "byteOffset": 1960176,
      "componentType": 5126,
      "count": 14698,
      "max": [
        1.0,
        1.0,
        1.0
      ],
      "min": [
        -1.0,
        -1.0,
        -1.0
      ],
      "type": "VEC3"
    },
    {
      "bufferView": 1,
      "byteOffset": 609192,
      "componentType": 5126,
      "count": 14698,
      "max": [
        0.9948976039886475,
        0.6631593108177185
      ],
      "min": [
        0.005496383178979158,
        0.012812820263206959
      ],
      "type": "VEC2"
    },
    {
      "bufferView": 0,
      "byteOffset": 623976,
      "componentType": 5125,
      "count": 31926,
      "type": "SCALAR"
    }
  ],
  "asset": {
    "extras": {
      "author": "local.yany (https://sketchfab.com/local.yany)",
      "license": "CC-BY-4.0 (http://creativecommons.org/licenses/by/4.0/)",
      "source": "https://sketchfab.com/3d-models/japanese-bar-c79ae149a37b442299a6cab208edbeb7",
      "title": "Japanese Bar"
    },
    "generator": "Sketchfab-16.72.0",
    "version": "2.0"
  },
  "bufferViews": [
    {
      "buffer": 0,
      "byteLength": 751680,
      "name": "floatBufferViews",
      "target": 34963
    },
    {
      "buffer": 0,
      "byteLength": 726776,
      "byteOffset": 751680,
      "byteStride": 8,
      "name": "floatBufferViews",
      "target": 34962
    },
    {
      "buffer": 0,
      "byteLength": 2136552,
      "byteOffset": 1478456,
      "byteStride": 12,
      "name": "floatBufferViews",
      "target": 34962
    }
  ],
  "buffers": [
    {
      "byteLength": 3615008,
      "uri": "scene.bin"
    }
  ],
  "images": [
    {
      "uri": "textures/XI_JT_Bar_Sides_MAT_baseColor.jpeg"
    },
    {
      "uri": "textures/XI_JT_Bar_Front_MAT_baseColor.jpeg"
    },
    {
      "uri": "textures/XI_JT_Bar_Glass_MAT_baseColor.png"
    },
    {
      "uri": "textures/XI_JT_Bar_Walls_MAT_baseColor.jpeg"
    },
    {
      "uri": "textures/XI_JT_Bar_Roof_MAT_baseColor.jpeg"
    }
  ],
  "materials": [
    {
      "doubleSided": true,
      "name": "XI_JT_Bar_Sides_MAT",
      "pbrMetallicRoughness": {
        "baseColorTexture": {
          "index": 0
        },
        "metallicFactor": 0.0,
        "roughnessFactor": 0.9577051494623774
      }
    },
    {
      "doubleSided": true,
      "name": "XI_JT_Bar_Front_MAT",
      "pbrMetallicRoughness": {
        "baseColorTexture": {
          "index": 1
        },
        "metallicFactor": 0.0,
        "roughnessFactor": 0.9577051494623774
      }
    },
    {
      "alphaMode": "BLEND",
      "doubleSided": true,
      "name": "XI_JT_Bar_Glass_MAT",
      "pbrMetallicRoughness": {
        "baseColorTexture": {
          "index": 2
        },
        "metallicFactor": 0.0,
        "roughnessFactor": 0.9577051494623774
      }
    },
    {
      "doubleSided": true,
      "name": "XI_JT_Bar_Walls_MAT",
      "pbrMetallicRoughness": {
        "baseColorTexture": {
          "index": 3
        },
        "metallicFactor": 0.0,
        "roughnessFactor": 0.9577051494623774
      }
    },
    {
      "doubleSided": true,
      "name": "XI_JT_Bar_Roof_MAT",
      "pbrMetallicRoughness": {
        "baseColorTexture": {
          "index": 4
        },
        "metallicFactor": 0.0,
        "roughnessFactor": 0.9577051494623774
      }
    }
  ],
  "meshes": [
    {
      "name": "XI_JT_Bar.Shape_XI_JT_Bar_Sides_MAT_0",
      "primitives": [
        {
          "attributes": {
            "NORMAL": 1,
            "POSITION": 0,
            "TEXCOORD_0": 2
          },
          "indices": 3,
          "material": 0,
          "mode": 4
        }
      ]
    },
    {
      "name": "XI_JT_Bar.Shape_XI_JT_Bar_Front_MAT_0",
      "primitives": [
        {
          "attributes": {
            "NORMAL": 5,
            "POSITION": 4,
            "TEXCOORD_0": 6
          },
          "indices": 7,
          "material": 1,
          "mode": 4
        }
      ]
    },
    {
      "name": "XI_JT_Bar.Shape_XI_JT_Bar_Glass_MAT_0",
      "primitives": [
        {
          "attributes": {
            "NORMAL": 9,
            "POSITION": 8,
            "TEXCOORD_0": 10,
            "TEXCOORD_1": 11
          },
          "indices": 12,
          "material": 2,
          "mode": 4
        }
      ]
    },
    {
      "name": "XI_JT_Bar.Shape_XI_JT_Bar_Walls_MAT_0",
      "primitives": [
        {
          "attributes": {
            "NORMAL": 14,
            "POSITION": 13,
            "TEXCOORD_0": 15
          },
          "indices": 16,
          "material": 3,
          "mode": 4
        }
      ]
    },
    {
      "name": "XI_JT_Bar.Shape_XI_JT_Bar_Roof_MAT_0",
      "primitives": [
        {
          "attributes": {
            "NORMAL": 18,
            "POSITION": 17,
            "TEXCOORD_0": 19
          },
          "indices": 20,
          "material": 4,
          "mode": 4
        }
      ]
    }
  ],
  "nodes": [
    {
      "children": [
        1
      ],
      "matrix": [
        1.0,
        0.0,
        0.0,
        0.0,
        0.0,
        2.220446049250313e-16,
        -1.0,
        0.0,
        0.0,
        1.0,
        2.220446049250313e-16,
        0.0,
        0.0,
        0.0,
        0.0,
        1.0
      ],
      "name": "Sketchfab_model"
    },
    {
      "children": [
        2
      ],
      "matrix": [
        0.009999999776482582,
        0.0,
        0.0,
        0.0,
        0.0,
        0.0,
        0.009999999776482582,
        0.0,
        0.0,
        -0.009999999776482582,
        0.0,
        0.0,
        0.0,
        0.0,
        0.0,
        1.0
      ],
      "name": "Japanese bar.fbx"
    },
    {
      "children": [
        3
      ],
      "name": "RootNode"
    },
    {
      "children": [
        4
      ],
      "name": "XI_JT_Bar"
    },
    {
      "children": [
        5,
        6,
        7,
        8,
        9
      ],
      "name": "XI_JT_Bar.Shape"
    },
    {
      "mesh": 0,
      "name": "XI_JT_Bar.Shape_XI_JT_Bar_Sides_MAT_0"
    },
    {
      "mesh": 1,
      "name": "XI_JT_Bar.Shape_XI_JT_Bar_Front_MAT_0"
    },
    {
      "mesh": 2,
      "name": "XI_JT_Bar.Shape_XI_JT_Bar_Glass_MAT_0"
    },
    {
      "mesh": 3,
      "name": "XI_JT_Bar.Shape_XI_JT_Bar_Walls_MAT_0"
    },
    {
      "mesh": 4,
      "name": "XI_JT_Bar.Shape_XI_JT_Bar_Roof_MAT_0"
    }
  ],
  "samplers": [
    {
      "magFilter": 9729,
      "minFilter": 9987,
      "wrapS": 10497,
      "wrapT": 10497
    }
  ],
  "scene": 0,
  "scenes": [
    {
      "name": "Sketchfab_Scene",
      "nodes": [
        0
      ]
    }
  ],
  "textures": [
    {
      "sampler": 0,
      "source": 0
    },
    {
      "sampler": 0,
      "source": 1
    },
    {
      "sampler": 0,
      "source": 2
    },
    {
      "sampler": 0,
      "source": 3
    },
    {
      "sampler": 0,
      "source": 4
    }
  ]
}
