{
  "accessors": [
    {
      "bufferView": 2,
      "componentType": 5126,
      "count": 1345,
      "max": [
        10.13807487487793,
        2.705111503601074,
        1.793818473815918
      ],
      "min": [
        -9.846491813659668,
        -2.705111503601074,
        -2.651045560836792
      ],
      "type": "VEC3"
    },
    {
      "bufferView": 2,
      "byteOffset": 16140,
      "componentType": 5126,
      "count": 1345,
      "max": [
        1.0,
        1.0,
        1.0
      ],
      "min": [
        -1.0,
        -1.0,
        -1.0
      ],
      "type": "VEC3"
    },
    {
      "bufferView": 3,
      "componentType": 5126,
      "count": 1345,
      "max": [
        1.0,
        1.0,
        1.0,
        1.0
      ],
      "min": [
        -1.0,
        -1.0,
        -0.9999996423721313,
        -1.0
      ],
      "type": "VEC4"
    },
    {
      "bufferView": 1,
      "componentType": 5126,
      "count": 1345,
      "max": [
        0.9616971015930176,
        0.9899516105651855
      ],
      "min": [
        0.002618994563817978,
        0.002220064401626587
      ],
      "type": "VEC2"
    },
    {
      "bufferView": 1,
      "byteOffset": 10760,
      "componentType": 5126,
      "count": 1345,
      "max": [
        0.9616971015930176,
        0.9899516105651855
      ],
      "min": [
        0.002618994563817978,
        0.002220064401626587
      ],
      "type": "VEC2"
    },
    {
      "bufferView": 1,
      "byteOffset": 21520,
      "componentType": 5126,
      "count": 1345,
      "max": [
        0.9616971015930176,
        0.9899516105651855
      ],
      "min": [
        0.002618994563817978,
        0.002220064401626587
      ],
      "type": "VEC2"
    },
    {
      "bufferView": 0,
      "componentType": 5125,
      "count": 5199,
      "type": "SCALAR"
    }
  ],
  "asset": {
    "extras": {
      "author": "bryanv7 (https://sketchfab.com/bryanv7)",
      "license": "CC-BY-4.0 (http://creativecommons.org/licenses/by/4.0/)",
      "source": "https://sketchfab.com/3d-models/ice-axe-fe4a4b55e0064f6fa069e41f3ba8d2b9",
      "title": "Ice Axe"
    },
    "generator": "Sketchfab-13.37.1",
    "version": "2.0"
  },
  "bufferViews": [
    {
      "buffer": 0,
      "byteLength": 20796,
      "name": "floatBufferViews",
      "target": 34963
    },
    {
      "buffer": 0,
      "byteLength": 32280,
      "byteOffset": 20796,
      "byteStride": 8,
      "name": "floatBufferViews",
      "target": 34962
    },
    {
      "buffer": 0,
      "byteLength": 32280,
      "byteOffset": 53076,
      "byteStride": 12,
      "name": "floatBufferViews",
      "target": 34962
    },
    {
      "buffer": 0,
      "byteLength": 21520,
      "byteOffset": 85356,
      "byteStride": 16,
      "name": "floatBufferViews",
      "target": 34962
    }
  ],
  "buffers": [
    {
      "byteLength": 106876,
      "uri": "scene.bin"
    }
  ],
  "images": [
    {
      "uri": "textures/Pick_baseColor.png"
    },
    {
      "uri": "textures/Pick_metallicRoughness.png"
    },
    {
      "uri": "textures/Pick_normal.png"
    }
  ],
  "materials": [
    {
      "doubleSided": true,
      "name": "Pick",
      "normalTexture": {
        "index": 2
      },
      "pbrMetallicRoughness": {
        "baseColorTexture": {
          "index": 0
        },
        "metallicRoughnessTexture": {
          "index": 1
        }
      }
    }
  ],
  "meshes": [
    {
      "name": "Cube.003_Pick_0",
      "primitives": [
        {
          "attributes": {
            "NORMAL": 1,
            "POSITION": 0,
            "TANGENT": 2,
            "TEXCOORD_0": 3,
            "TEXCOORD_1": 4,
            "TEXCOORD_2": 5
          },
          "indices": 6,
          "material": 0,
          "mode": 4
        }
      ]
    }
  ],
  "nodes": [
    {
      "children": [
        1
      ],
      "matrix": [
        1.0,
        0.0,
        0.0,
        0.0,
        0.0,
        2.220446049250313e-16,
        -1.0,
        0.0,
        0.0,
        1.0,
        2.220446049250313e-16,
        0.0,
        0.0,
        0.0,
        0.0,
        1.0
      ],
      "name": "Sketchfab_model"
    },
    {
      "children": [
        2
      ],
      "matrix": [
        0.009999999776482582,
        0.0,
        0.0,
        0.0,
        0.0,
        0.0,
        0.009999999776482582,
        0.0,
        0.0,
        -0.009999999776482582,
        0.0,
        0.0,
        0.0,
        0.0,
        0.0,
        1.0
      ],
      "name": "e7795f11e872441d914c589af8204319.fbx"
    },
    {
      "children": [
        3
      ],
      "name": "RootNode"
    },
    {
      "children": [
        4
      ],
      "matrix": [
        24.92685317993164,
        0.0,
        0.0,
        0.0,
        0.0,
        -4.061099855174896e-06,
        -24.92685317993131,
        0.0,
        0.0,
        189.49273681640375,
        -3.087228542194641e-05,
        0.0,
        0.0,
        342.0437927246094,
        0.0,
        1.0
      ],
      "name": "Cube.003"
    },
    {
      "mesh": 0,
      "name": "Cube.003_Pick_0"
    }
  ],
  "samplers": [
    {
      "magFilter": 9729,
      "minFilter": 9987,
      "wrapS": 10497,
      "wrapT": 10497
    }
  ],
  "scene": 0,
  "scenes": [
    {
      "name": "Sketchfab_Scene",
      "nodes": [
        0
      ]
    }
  ],
  "textures": [
    {
      "sampler": 0,
      "source": 0
    },
    {
      "sampler": 0,
      "source": 1
    },
    {
      "sampler": 0,
      "source": 2
    }
  ]
}
